<?xml version="1.0" encoding="UTF-8" standalone="no"?>
<!DOCTYPE svg PUBLIC "-//W3C//DTD SVG 1.1//EN"
 "http://www.w3.org/Graphics/SVG/1.1/DTD/svg11.dtd">
<!-- Generated by graphviz version 2.43.0 (0)
 -->
<!-- Title: EasyKiConverter::DatasheetExporter Pages: 1 -->
<svg width="243pt" height="404pt"
 viewBox="0.00 0.00 242.50 404.00" xmlns="http://www.w3.org/2000/svg" xmlns:xlink="http://www.w3.org/1999/xlink">
<g id="graph0" class="graph" transform="scale(1 1) rotate(0) translate(4 400)">
<title>EasyKiConverter::DatasheetExporter</title>
<!-- Node1 -->
<g id="Node000001" class="node">
<title>Node1</title>
<g id="a_Node000001"><a xlink:title=" ">
<polygon fill="#999999" stroke="transparent" points="165.5,-165 10.5,-165 10.5,0 165.5,0 165.5,-165"/>
<text text-anchor="start" x="19.5" y="-152.5" font-family="Helvetica,sans-Serif" font-size="10.00">EasyKiConverter::Datasheet</text>
<text text-anchor="start" x="67.5" y="-141.5" font-family="Helvetica,sans-Serif" font-size="10.00">Exporter</text>
<text text-anchor="start" x="17.5" y="-126.5" font-family="Helvetica,sans-Serif" font-size="10.00">&#45;</text>
<text text-anchor="start" x="28" y="-126.5" font-family="Helvetica,sans-Serif" font-size="10.00">m_networkManager</text>
<text text-anchor="start" x="15" y="-111.5" font-family="Helvetica,sans-Serif" font-size="10.00">+</text>
<text text-anchor="start" x="28" y="-111.5" font-family="Helvetica,sans-Serif" font-size="10.00">DatasheetExporter()</text>
<text text-anchor="start" x="15" y="-96.5" font-family="Helvetica,sans-Serif" font-size="10.00">+</text>
<text text-anchor="start" x="28" y="-96.5" font-family="Helvetica,sans-Serif" font-size="10.00">~DatasheetExporter()</text>
<text text-anchor="start" x="15" y="-81.5" font-family="Helvetica,sans-Serif" font-size="10.00">+</text>
<text text-anchor="start" x="28" y="-81.5" font-family="Helvetica,sans-Serif" font-size="10.00">setOptions()</text>
<text text-anchor="start" x="15" y="-66.5" font-family="Helvetica,sans-Serif" font-size="10.00">+</text>
<text text-anchor="start" x="28" y="-66.5" font-family="Helvetica,sans-Serif" font-size="10.00">setNetworkManager()</text>
<text text-anchor="start" x="15" y="-51.5" font-family="Helvetica,sans-Serif" font-size="10.00">+</text>
<text text-anchor="start" x="28" y="-51.5" font-family="Helvetica,sans-Serif" font-size="10.00">exportDatasheet()</text>
<text text-anchor="start" x="15" y="-36.5" font-family="Helvetica,sans-Serif" font-size="10.00">+</text>
<text text-anchor="start" x="28" y="-36.5" font-family="Helvetica,sans-Serif" font-size="10.00">exportCompleted()</text>
<text text-anchor="start" x="15" y="-21.5" font-family="Helvetica,sans-Serif" font-size="10.00">+</text>
<text text-anchor="start" x="28" y="-21.5" font-family="Helvetica,sans-Serif" font-size="10.00">exportFailed()</text>
<text text-anchor="start" x="17.5" y="-6.5" font-family="Helvetica,sans-Serif" font-size="10.00">&#45;</text>
<text text-anchor="start" x="28" y="-6.5" font-family="Helvetica,sans-Serif" font-size="10.00">createDatasheetDirectory()</text>
<polygon fill="#666666" stroke="#666666" points="11,-136.5 11,-136.5 166,-136.5 166,-136.5 11,-136.5"/>
<polygon fill="#666666" stroke="#666666" points="11,-121.5 11,-121.5 26,-121.5 26,-121.5 11,-121.5"/>
<polygon fill="#666666" stroke="#666666" points="26,-121.5 26,-121.5 166,-121.5 166,-121.5 26,-121.5"/>
<polygon fill="none" stroke="#666666" points="10.5,0 10.5,-165 165.5,-165 165.5,0 10.5,0"/>
</a>
</g>
</g>
<!-- Node2 -->
<g id="Node000002" class="node">
<title>Node2</title>
<g id="a_Node000002"><a xlink:title=" ">
<polygon fill="white" stroke="transparent" points="50,-328.5 0,-328.5 0,-279.5 50,-279.5 50,-328.5"/>
<text text-anchor="start" x="5" y="-316" font-family="Helvetica,sans-Serif" font-size="10.00">QObject</text>
<text text-anchor="start" x="23" y="-301" font-family="Helvetica,sans-Serif" font-size="10.00"> </text>
<text text-anchor="start" x="23" y="-286" font-family="Helvetica,sans-Serif" font-size="10.00"> </text>
<polygon fill="#666666" stroke="#666666" points="0,-311 0,-311 50,-311 50,-311 0,-311"/>
<polygon fill="#666666" stroke="#666666" points="0,-296 0,-296 50,-296 50,-296 0,-296"/>
<polygon fill="none" stroke="#666666" points="0,-279.5 0,-328.5 50,-328.5 50,-279.5 0,-279.5"/>
</a>
</g>
</g>
<!-- Node2&#45;&gt;Node1 -->
<g id="edge1_Node000001_Node000002" class="edge">
<title>Node2&#45;&gt;Node1</title>
<g id="a_edge1_Node000001_Node000002"><a xlink:title=" ">
<path fill="none" stroke="#63b8ff" d="M34.71,-269.15C42.64,-241.53 54.18,-201.32 64.5,-165.39"/>
<polygon fill="none" stroke="#63b8ff" points="31.26,-268.51 31.86,-279.09 37.99,-270.45 31.26,-268.51"/>
</a>
</g>
</g>
<!-- Node3 -->
<g id="Node000003" class="node">
<title>Node3</title>
<g id="a_Node000003"><a xlink:href="structEasyKiConverter_1_1ExportOptions.html" target="_top" xlink:title="导出选项结构">
<polygon fill="white" stroke="transparent" points="234.5,-396 67.5,-396 67.5,-212 234.5,-212 234.5,-396"/>
<text text-anchor="start" x="73" y="-384" font-family="Helvetica,sans-Serif" font-size="10.00">EasyKiConverter::ExportOptions</text>
<text text-anchor="start" x="81" y="-369" font-family="Helvetica,sans-Serif" font-size="10.00">+</text>
<text text-anchor="start" x="103" y="-369" font-family="Helvetica,sans-Serif" font-size="10.00">outputPath</text>
<text text-anchor="start" x="81" y="-354" font-family="Helvetica,sans-Serif" font-size="10.00">+</text>
<text text-anchor="start" x="103" y="-354" font-family="Helvetica,sans-Serif" font-size="10.00">libName</text>
<text text-anchor="start" x="81" y="-339" font-family="Helvetica,sans-Serif" font-size="10.00">+</text>
<text text-anchor="start" x="103" y="-339" font-family="Helvetica,sans-Serif" font-size="10.00">exportSymbol</text>
<text text-anchor="start" x="81" y="-324" font-family="Helvetica,sans-Serif" font-size="10.00">+</text>
<text text-anchor="start" x="103" y="-324" font-family="Helvetica,sans-Serif" font-size="10.00">exportFootprint</text>
<text text-anchor="start" x="81" y="-309" font-family="Helvetica,sans-Serif" font-size="10.00">+</text>
<text text-anchor="start" x="103" y="-309" font-family="Helvetica,sans-Serif" font-size="10.00">exportModel3D</text>
<text text-anchor="start" x="81" y="-294" font-family="Helvetica,sans-Serif" font-size="10.00">+</text>
<text text-anchor="start" x="103" y="-294" font-family="Helvetica,sans-Serif" font-size="10.00">exportPreviewImages</text>
<text text-anchor="start" x="81" y="-279" font-family="Helvetica,sans-Serif" font-size="10.00">+</text>
<text text-anchor="start" x="103" y="-279" font-family="Helvetica,sans-Serif" font-size="10.00">exportDatasheet</text>
<text text-anchor="start" x="81" y="-264" font-family="Helvetica,sans-Serif" font-size="10.00">+</text>
<text text-anchor="start" x="103" y="-264" font-family="Helvetica,sans-Serif" font-size="10.00">overwriteExistingFiles</text>
<text text-anchor="start" x="81" y="-249" font-family="Helvetica,sans-Serif" font-size="10.00">+</text>
<text text-anchor="start" x="103" y="-249" font-family="Helvetica,sans-Serif" font-size="10.00">updateMode</text>
<text text-anchor="start" x="81" y="-234" font-family="Helvetica,sans-Serif" font-size="10.00">+</text>
<text text-anchor="start" x="103" y="-234" font-family="Helvetica,sans-Serif" font-size="10.00">debugMode</text>
<text text-anchor="start" x="81" y="-219" font-family="Helvetica,sans-Serif" font-size="10.00">+</text>
<text text-anchor="start" x="103" y="-219" font-family="Helvetica,sans-Serif" font-size="10.00">ExportOptions()</text>
<polygon fill="#666666" stroke="#666666" points="68,-379 68,-379 235,-379 235,-379 68,-379"/>
<polygon fill="#666666" stroke="#666666" points="68,-229 68,-229 101,-229 101,-229 68,-229"/>
<polygon fill="#666666" stroke="#666666" points="101,-229 101,-229 235,-229 235,-229 101,-229"/>
<polygon fill="none" stroke="#666666" points="67.5,-212 67.5,-396 234.5,-396 234.5,-212 67.5,-212"/>
</a>
</g>
</g>
<!-- Node3&#45;&gt;Node1 -->
<g id="edge2_Node000001_Node000003" class="edge">
<title>Node3&#45;&gt;Node1</title>
<g id="a_edge2_Node000001_Node000003"><a xlink:title=" ">
<path fill="none" stroke="#63b8ff" d="M124.83,-211.82C121.54,-200.37 118.18,-188.64 114.88,-177.15"/>
<polygon fill="none" stroke="#63b8ff" points="114.78,-176.82 109.28,-172.15 111.47,-165.28 116.97,-169.95 114.78,-176.82"/>
</a>
</g>
<text text-anchor="middle" x="148" y="-186" font-family="Helvetica,sans-Serif" font-size="10.00" fill="grey"> &#45;m_options</text>
</g>
</g>
</svg>
