<?xml version="1.0" encoding="UTF-8" standalone="no"?>
<!DOCTYPE svg PUBLIC "-//W3C//DTD SVG 1.1//EN"
 "http://www.w3.org/Graphics/SVG/1.1/DTD/svg11.dtd">
<!-- Generated by graphviz version 2.43.0 (0)
 -->
<!-- Title: workers/ExportWorker.cpp Pages: 1 -->
<svg width="1202pt" height="302pt"
 viewBox="0.00 0.00 1202.21 302.00" xmlns="http://www.w3.org/2000/svg" xmlns:xlink="http://www.w3.org/1999/xlink">
<g id="graph0" class="graph" transform="scale(1 1) rotate(0) translate(4 298)">
<title>workers/ExportWorker.cpp</title>
<!-- Node1 -->
<g id="Node000001" class="node">
<title>Node1</title>
<g id="a_Node000001"><a xlink:title=" ">
<polygon fill="#999999" stroke="#666666" points="989.98,-294 846.98,-294 846.98,-275 989.98,-275 989.98,-294"/>
<text text-anchor="middle" x="918.48" y="-282" font-family="Helvetica,sans-Serif" font-size="10.00">workers/ExportWorker.cpp</text>
</a>
</g>
</g>
<!-- Node2 -->
<g id="Node000002" class="node">
<title>Node2</title>
<g id="a_Node000002"><a xlink:href="ExportWorker_8h.html" target="_top" xlink:title=" ">
<polygon fill="white" stroke="#666666" points="396.48,-239 306.48,-239 306.48,-220 396.48,-220 396.48,-239"/>
<text text-anchor="middle" x="351.48" y="-227" font-family="Helvetica,sans-Serif" font-size="10.00">ExportWorker.h</text>
</a>
</g>
</g>
<!-- Node1&#45;&gt;Node2 -->
<g id="edge1_Node000001_Node000002" class="edge">
<title>Node1&#45;&gt;Node2</title>
<g id="a_edge1_Node000001_Node000002"><a xlink:title=" ">
<path fill="none" stroke="#63b8ff" d="M846.95,-276.81C732.4,-266.11 510.18,-245.33 406.83,-235.67"/>
<polygon fill="#63b8ff" stroke="#63b8ff" points="406.89,-232.16 396.61,-234.72 406.24,-239.13 406.89,-232.16"/>
</a>
</g>
</g>
<!-- Node17 -->
<g id="Node000017" class="node">
<title>Node17</title>
<g id="a_Node000017"><a xlink:href="Exporter3DModel_8h.html" target="_top" xlink:title=" ">
<polygon fill="white" stroke="#666666" points="176.48,-129 12.48,-129 12.48,-110 176.48,-110 176.48,-129"/>
<text text-anchor="middle" x="94.48" y="-117" font-family="Helvetica,sans-Serif" font-size="10.00">core/kicad/Exporter3DModel.h</text>
</a>
</g>
</g>
<!-- Node1&#45;&gt;Node17 -->
<g id="edge31_Node000001_Node000017" class="edge">
<title>Node1&#45;&gt;Node17</title>
<g id="a_edge31_Node000001_Node000017"><a xlink:title=" ">
<path fill="none" stroke="#63b8ff" d="M846.68,-282.93C730.46,-280.98 494.3,-272.78 297.48,-239 206.62,-223.41 155.07,-255.98 97.48,-184 87.58,-171.62 87.84,-153.15 89.98,-139.32"/>
<polygon fill="#63b8ff" stroke="#63b8ff" points="93.43,-139.91 91.94,-129.42 86.56,-138.55 93.43,-139.91"/>
</a>
</g>
</g>
<!-- Node18 -->
<g id="Node000018" class="node">
<title>Node18</title>
<g id="a_Node000018"><a xlink:href="ExporterFootprint_8h.html" target="_top" xlink:title=" ">
<polygon fill="white" stroke="#666666" points="789.48,-239 625.48,-239 625.48,-220 789.48,-220 789.48,-239"/>
<text text-anchor="middle" x="707.48" y="-227" font-family="Helvetica,sans-Serif" font-size="10.00">core/kicad/ExporterFootprint.h</text>
</a>
</g>
</g>
<!-- Node1&#45;&gt;Node18 -->
<g id="edge36_Node000001_Node000018" class="edge">
<title>Node1&#45;&gt;Node18</title>
<g id="a_edge36_Node000001_Node000018"><a xlink:title=" ">
<path fill="none" stroke="#63b8ff" d="M884.58,-274.98C848.46,-265.91 791.15,-251.52 751.56,-241.57"/>
<polygon fill="#63b8ff" stroke="#63b8ff" points="752.2,-238.12 741.64,-239.08 750.49,-244.91 752.2,-238.12"/>
</a>
</g>
</g>
<!-- Node21 -->
<g id="Node000021" class="node">
<title>Node21</title>
<g id="a_Node000021"><a xlink:href="ExporterSymbol_8h.html" target="_top" xlink:title=" ">
<polygon fill="white" stroke="#666666" points="996.98,-239 839.98,-239 839.98,-220 996.98,-220 996.98,-239"/>
<text text-anchor="middle" x="918.48" y="-227" font-family="Helvetica,sans-Serif" font-size="10.00">core/kicad/ExporterSymbol.h</text>
</a>
</g>
</g>
<!-- Node1&#45;&gt;Node21 -->
<g id="edge45_Node000001_Node000021" class="edge">
<title>Node1&#45;&gt;Node21</title>
<g id="a_edge45_Node000001_Node000021"><a xlink:title=" ">
<path fill="none" stroke="#63b8ff" d="M918.48,-274.75C918.48,-267.8 918.48,-257.85 918.48,-249.13"/>
<polygon fill="#63b8ff" stroke="#63b8ff" points="921.98,-249.09 918.48,-239.09 914.98,-249.09 921.98,-249.09"/>
</a>
</g>
</g>
<!-- Node23 -->
<g id="Node000023" class="node">
<title>Node23</title>
<g id="a_Node000023"><a xlink:title=" ">
<polygon fill="#e0e0e0" stroke="#999999" points="1071.48,-239 1015.48,-239 1015.48,-220 1071.48,-220 1071.48,-239"/>
<text text-anchor="middle" x="1043.48" y="-227" font-family="Helvetica,sans-Serif" font-size="10.00">QDebug</text>
</a>
</g>
</g>
<!-- Node1&#45;&gt;Node23 -->
<g id="edge53_Node000001_Node000023" class="edge">
<title>Node1&#45;&gt;Node23</title>
<g id="a_edge53_Node000001_Node000023"><a xlink:title=" ">
<path fill="none" stroke="#63b8ff" d="M938.56,-274.98C958.85,-266.38 990.43,-252.99 1013.65,-243.15"/>
<polygon fill="#63b8ff" stroke="#63b8ff" points="1015.19,-246.3 1023.03,-239.17 1012.46,-239.85 1015.19,-246.3"/>
</a>
</g>
</g>
<!-- Node24 -->
<g id="Node000024" class="node">
<title>Node24</title>
<g id="a_Node000024"><a xlink:title=" ">
<polygon fill="#e0e0e0" stroke="#999999" points="1127.48,-239 1089.48,-239 1089.48,-220 1127.48,-220 1127.48,-239"/>
<text text-anchor="middle" x="1108.48" y="-227" font-family="Helvetica,sans-Serif" font-size="10.00">QDir</text>
</a>
</g>
</g>
<!-- Node1&#45;&gt;Node24 -->
<g id="edge54_Node000001_Node000024" class="edge">
<title>Node1&#45;&gt;Node24</title>
<g id="a_edge54_Node000001_Node000024"><a xlink:title=" ">
<path fill="none" stroke="#63b8ff" d="M950.52,-274.97C981.27,-266.72 1029.25,-253.7 1079.48,-239.23"/>
<polygon fill="#63b8ff" stroke="#63b8ff" points="1080.58,-242.56 1089.22,-236.42 1078.64,-235.83 1080.58,-242.56"/>
</a>
</g>
</g>
<!-- Node25 -->
<g id="Node000025" class="node">
<title>Node25</title>
<g id="a_Node000025"><a xlink:title=" ">
<polygon fill="#e0e0e0" stroke="#999999" points="1186.98,-239 1145.98,-239 1145.98,-220 1186.98,-220 1186.98,-239"/>
<text text-anchor="middle" x="1166.48" y="-227" font-family="Helvetica,sans-Serif" font-size="10.00">QFile</text>
</a>
</g>
</g>
<!-- Node1&#45;&gt;Node25 -->
<g id="edge55_Node000001_Node000025" class="edge">
<title>Node1&#45;&gt;Node25</title>
<g id="a_edge55_Node000001_Node000025"><a xlink:title=" ">
<path fill="none" stroke="#63b8ff" d="M965.48,-274.96C1007.62,-267.06 1071.33,-254.55 1135.92,-238.98"/>
<polygon fill="#63b8ff" stroke="#63b8ff" points="1136.99,-242.32 1145.87,-236.56 1135.33,-235.52 1136.99,-242.32"/>
</a>
</g>
</g>
<!-- Node3 -->
<g id="Node000003" class="node">
<title>Node3</title>
<g id="a_Node000003"><a xlink:href="ComponentData_8h.html" target="_top" xlink:title=" ">
<polygon fill="white" stroke="#666666" points="495.48,-184 351.48,-184 351.48,-165 495.48,-165 495.48,-184"/>
<text text-anchor="middle" x="423.48" y="-172" font-family="Helvetica,sans-Serif" font-size="10.00">models/ComponentData.h</text>
</a>
</g>
</g>
<!-- Node2&#45;&gt;Node3 -->
<g id="edge2_Node000002_Node000003" class="edge">
<title>Node2&#45;&gt;Node3</title>
<g id="a_edge2_Node000002_Node000003"><a xlink:title=" ">
<path fill="none" stroke="#63b8ff" d="M363.05,-219.98C373.9,-212 390.36,-199.88 403.36,-190.31"/>
<polygon fill="#63b8ff" stroke="#63b8ff" points="405.72,-192.92 411.7,-184.17 401.57,-187.28 405.72,-192.92"/>
</a>
</g>
</g>
<!-- Node4 -->
<g id="Node000004" class="node">
<title>Node4</title>
<g id="a_Node000004"><a xlink:href="FootprintData_8h.html" target="_top" xlink:title=" ">
<polygon fill="white" stroke="#666666" points="662.48,-129 570.48,-129 570.48,-110 662.48,-110 662.48,-129"/>
<text text-anchor="middle" x="616.48" y="-117" font-family="Helvetica,sans-Serif" font-size="10.00">FootprintData.h</text>
</a>
</g>
</g>
<!-- Node2&#45;&gt;Node4 -->
<g id="edge25_Node000002_Node000004" class="edge">
<title>Node2&#45;&gt;Node4</title>
<g id="a_edge25_Node000002_Node000004"><a xlink:title=" ">
<path fill="none" stroke="#63b8ff" d="M390.05,-219.92C421.52,-212.31 466.76,-199.92 504.48,-184 537.45,-170.08 572.99,-148.73 594.99,-134.69"/>
<polygon fill="#63b8ff" stroke="#63b8ff" points="597.04,-137.53 603.54,-129.17 593.24,-131.65 597.04,-137.53"/>
</a>
</g>
</g>
<!-- Node5 -->
<g id="Node000005" class="node">
<title>Node5</title>
<g id="a_Node000005"><a xlink:href="Model3DData_8h.html" target="_top" xlink:title=" ">
<polygon fill="white" stroke="#666666" points="408.48,-74 316.48,-74 316.48,-55 408.48,-55 408.48,-74"/>
<text text-anchor="middle" x="362.48" y="-62" font-family="Helvetica,sans-Serif" font-size="10.00">Model3DData.h</text>
</a>
</g>
</g>
<!-- Node2&#45;&gt;Node5 -->
<g id="edge26_Node000002_Node000005" class="edge">
<title>Node2&#45;&gt;Node5</title>
<g id="a_edge26_Node000002_Node000005"><a xlink:title=" ">
<path fill="none" stroke="#63b8ff" d="M336.68,-219.81C305.76,-200.51 239.36,-152.46 266.48,-110 276.4,-94.47 293.28,-84.28 310.15,-77.62"/>
<polygon fill="#63b8ff" stroke="#63b8ff" points="311.79,-80.76 320.03,-74.1 309.44,-74.16 311.79,-80.76"/>
</a>
</g>
</g>
<!-- Node12 -->
<g id="Node000012" class="node">
<title>Node12</title>
<g id="a_Node000012"><a xlink:href="SymbolData_8h.html" target="_top" xlink:title=" ">
<polygon fill="white" stroke="#666666" points="835.48,-129 749.48,-129 749.48,-110 835.48,-110 835.48,-129"/>
<text text-anchor="middle" x="792.48" y="-117" font-family="Helvetica,sans-Serif" font-size="10.00">SymbolData.h</text>
</a>
</g>
</g>
<!-- Node2&#45;&gt;Node12 -->
<g id="edge27_Node000002_Node000012" class="edge">
<title>Node2&#45;&gt;Node12</title>
<g id="a_edge27_Node000002_Node000012"><a xlink:title=" ">
<path fill="none" stroke="#63b8ff" d="M387.51,-219.98C424.99,-211.1 485.38,-196.72 537.48,-184 611.7,-165.88 697.93,-144.29 748.71,-131.53"/>
<polygon fill="#63b8ff" stroke="#63b8ff" points="749.83,-134.86 758.68,-129.02 748.13,-128.07 749.83,-134.86"/>
</a>
</g>
</g>
<!-- Node14 -->
<g id="Node000014" class="node">
<title>Node14</title>
<g id="a_Node000014"><a xlink:title=" ">
<polygon fill="#e0e0e0" stroke="#999999" points="400.48,-129 308.48,-129 308.48,-110 400.48,-110 400.48,-129"/>
<text text-anchor="middle" x="354.48" y="-117" font-family="Helvetica,sans-Serif" font-size="10.00">QSharedPointer</text>
</a>
</g>
</g>
<!-- Node2&#45;&gt;Node14 -->
<g id="edge30_Node000002_Node000014" class="edge">
<title>Node2&#45;&gt;Node14</title>
<g id="a_edge30_Node000002_Node000014"><a xlink:title=" ">
<path fill="none" stroke="#63b8ff" d="M348.76,-219.88C345.24,-207.67 339.88,-184.65 342.48,-165 343.63,-156.27 346.01,-146.83 348.35,-138.9"/>
<polygon fill="#63b8ff" stroke="#63b8ff" points="351.73,-139.82 351.39,-129.23 345.05,-137.72 351.73,-139.82"/>
</a>
</g>
</g>
<!-- Node15 -->
<g id="Node000015" class="node">
<title>Node15</title>
<g id="a_Node000015"><a xlink:title=" ">
<polygon fill="#e0e0e0" stroke="#999999" points="57.48,-74 1.48,-74 1.48,-55 57.48,-55 57.48,-74"/>
<text text-anchor="middle" x="29.48" y="-62" font-family="Helvetica,sans-Serif" font-size="10.00">QObject</text>
</a>
</g>
</g>
<!-- Node2&#45;&gt;Node15 -->
<g id="edge28_Node000002_Node000015" class="edge">
<title>Node2&#45;&gt;Node15</title>
<g id="a_edge28_Node000002_Node000015"><a xlink:title=" ">
<path fill="none" stroke="#63b8ff" d="M306.18,-225.44C254.38,-220.83 167.67,-209.74 97.48,-184 52.03,-167.34 27.56,-170.99 3.48,-129 -5.27,-113.74 4.72,-94.96 14.75,-81.79"/>
<polygon fill="#63b8ff" stroke="#63b8ff" points="17.47,-83.99 21.14,-74.05 12.08,-79.53 17.47,-83.99"/>
</a>
</g>
</g>
<!-- Node16 -->
<g id="Node000016" class="node">
<title>Node16</title>
<g id="a_Node000016"><a xlink:title=" ">
<polygon fill="#e0e0e0" stroke="#999999" points="176.48,-184 106.48,-184 106.48,-165 176.48,-165 176.48,-184"/>
<text text-anchor="middle" x="141.48" y="-172" font-family="Helvetica,sans-Serif" font-size="10.00">QRunnable</text>
</a>
</g>
</g>
<!-- Node2&#45;&gt;Node16 -->
<g id="edge29_Node000002_Node000016" class="edge">
<title>Node2&#45;&gt;Node16</title>
<g id="a_edge29_Node000002_Node000016"><a xlink:title=" ">
<path fill="none" stroke="#63b8ff" d="M317.74,-219.98C281.79,-210.91 224.76,-196.52 185.35,-186.57"/>
<polygon fill="#63b8ff" stroke="#63b8ff" points="186.03,-183.14 175.48,-184.08 184.32,-189.92 186.03,-183.14"/>
</a>
</g>
</g>
<!-- Node3&#45;&gt;Node4 -->
<g id="edge3_Node000003_Node000004" class="edge">
<title>Node3&#45;&gt;Node4</title>
<g id="a_edge3_Node000003_Node000004"><a xlink:title=" ">
<path fill="none" stroke="#63b8ff" d="M454.49,-164.98C487.31,-155.97 539.27,-141.7 575.47,-131.76"/>
<polygon fill="#63b8ff" stroke="#63b8ff" points="576.51,-135.11 585.23,-129.08 574.66,-128.36 576.51,-135.11"/>
</a>
</g>
</g>
<!-- Node3&#45;&gt;Node5 -->
<g id="edge13_Node000003_Node000005" class="edge">
<title>Node3&#45;&gt;Node5</title>
<g id="a_edge13_Node000003_Node000005"><a xlink:title=" ">
<path fill="none" stroke="#63b8ff" d="M423.15,-164.71C422.34,-151.89 419.48,-127.69 409.48,-110 403.04,-98.62 392.74,-88.39 383.42,-80.62"/>
<polygon fill="#63b8ff" stroke="#63b8ff" points="385.3,-77.64 375.28,-74.21 380.97,-83.14 385.3,-77.64"/>
</a>
</g>
</g>
<!-- Node7 -->
<g id="Node000007" class="node">
<title>Node7</title>
<g id="a_Node000007"><a xlink:title=" ">
<polygon fill="#e0e0e0" stroke="#999999" points="551.48,-19 475.48,-19 475.48,0 551.48,0 551.48,-19"/>
<text text-anchor="middle" x="513.48" y="-7" font-family="Helvetica,sans-Serif" font-size="10.00">QJsonObject</text>
</a>
</g>
</g>
<!-- Node3&#45;&gt;Node7 -->
<g id="edge22_Node000003_Node000007" class="edge">
<title>Node3&#45;&gt;Node7</title>
<g id="a_edge22_Node000003_Node000007"><a xlink:title=" ">
<path fill="none" stroke="#63b8ff" d="M425.52,-164.9C430.61,-144.56 445.23,-92.41 469.48,-55 476.54,-44.11 486.58,-33.7 495.3,-25.68"/>
<polygon fill="#63b8ff" stroke="#63b8ff" points="497.62,-28.3 502.8,-19.05 492.99,-23.05 497.62,-28.3"/>
</a>
</g>
</g>
<!-- Node8 -->
<g id="Node000008" class="node">
<title>Node8</title>
<g id="a_Node000008"><a xlink:title=" ">
<polygon fill="#e0e0e0" stroke="#999999" points="992.98,-19 939.98,-19 939.98,0 992.98,0 992.98,-19"/>
<text text-anchor="middle" x="966.48" y="-7" font-family="Helvetica,sans-Serif" font-size="10.00">QString</text>
</a>
</g>
</g>
<!-- Node3&#45;&gt;Node8 -->
<g id="edge24_Node000003_Node000008" class="edge">
<title>Node3&#45;&gt;Node8</title>
<g id="a_edge24_Node000003_Node000008"><a xlink:title=" ">
<path fill="none" stroke="#63b8ff" d="M429.25,-164.98C435.31,-156.04 445.09,-141.55 453.48,-129 475.39,-96.2 468.66,-75.31 502.48,-55 574.2,-11.93 832.71,-9.4 929.53,-10.03"/>
<polygon fill="#63b8ff" stroke="#63b8ff" points="929.69,-13.53 939.72,-10.11 929.74,-6.53 929.69,-13.53"/>
</a>
</g>
</g>
<!-- Node9 -->
<g id="Node000009" class="node">
<title>Node9</title>
<g id="a_Node000009"><a xlink:title=" ">
<polygon fill="#e0e0e0" stroke="#999999" points="582.98,-74 511.98,-74 511.98,-55 582.98,-55 582.98,-74"/>
<text text-anchor="middle" x="547.48" y="-62" font-family="Helvetica,sans-Serif" font-size="10.00">QJsonArray</text>
</a>
</g>
</g>
<!-- Node3&#45;&gt;Node9 -->
<g id="edge21_Node000003_Node000009" class="edge">
<title>Node3&#45;&gt;Node9</title>
<g id="a_edge21_Node000003_Node000009"><a xlink:title=" ">
<path fill="none" stroke="#63b8ff" d="M455.04,-164.93C475.33,-158.06 501.05,-146.6 518.48,-129 530.73,-116.63 538.36,-98.16 542.7,-84.32"/>
<polygon fill="#63b8ff" stroke="#63b8ff" points="546.14,-85 545.5,-74.42 539.41,-83.09 546.14,-85"/>
</a>
</g>
</g>
<!-- Node3&#45;&gt;Node12 -->
<g id="edge14_Node000003_Node000012" class="edge">
<title>Node3&#45;&gt;Node12</title>
<g id="a_edge14_Node000003_Node000012"><a xlink:title=" ">
<path fill="none" stroke="#63b8ff" d="M482.76,-164.98C553.69,-154.8 671.35,-137.9 739.4,-128.12"/>
<polygon fill="#63b8ff" stroke="#63b8ff" points="740.08,-131.56 749.48,-126.68 739.08,-124.63 740.08,-131.56"/>
</a>
</g>
</g>
<!-- Node3&#45;&gt;Node14 -->
<g id="edge23_Node000003_Node000014" class="edge">
<title>Node3&#45;&gt;Node14</title>
<g id="a_edge23_Node000003_Node000014"><a xlink:title=" ">
<path fill="none" stroke="#63b8ff" d="M412.39,-164.98C401.99,-157 386.22,-144.88 373.76,-135.31"/>
<polygon fill="#63b8ff" stroke="#63b8ff" points="375.83,-132.49 365.77,-129.17 371.56,-138.04 375.83,-132.49"/>
</a>
</g>
</g>
<!-- Node4&#45;&gt;Node5 -->
<g id="edge4_Node000004_Node000005" class="edge">
<title>Node4&#45;&gt;Node5</title>
<g id="a_edge4_Node000004_Node000005"><a xlink:title=" ">
<path fill="none" stroke="#63b8ff" d="M575.67,-109.98C531.55,-100.78 461.15,-86.09 413.43,-76.13"/>
<polygon fill="#63b8ff" stroke="#63b8ff" points="414.11,-72.7 403.61,-74.08 412.68,-79.55 414.11,-72.7"/>
</a>
</g>
</g>
<!-- Node4&#45;&gt;Node7 -->
<g id="edge9_Node000004_Node000007" class="edge">
<title>Node4&#45;&gt;Node7</title>
<g id="a_edge9_Node000004_Node000007"><a xlink:title=" ">
<path fill="none" stroke="#63b8ff" d="M615.12,-109.73C612.69,-96.5 606.45,-71.27 592.48,-55 580.42,-40.96 562.77,-30.43 547.21,-23.14"/>
<polygon fill="#63b8ff" stroke="#63b8ff" points="548.42,-19.85 537.86,-19.03 545.6,-26.26 548.42,-19.85"/>
</a>
</g>
</g>
<!-- Node4&#45;&gt;Node8 -->
<g id="edge12_Node000004_Node000008" class="edge">
<title>Node4&#45;&gt;Node8</title>
<g id="a_edge12_Node000004_Node000008"><a xlink:title=" ">
<path fill="none" stroke="#63b8ff" d="M620.98,-109.79C628.77,-95.68 646.19,-68.09 669.48,-55 713.47,-30.28 860.73,-17.5 929.95,-12.74"/>
<polygon fill="#63b8ff" stroke="#63b8ff" points="930.22,-16.23 939.96,-12.07 929.75,-9.24 930.22,-16.23"/>
</a>
</g>
</g>
<!-- Node4&#45;&gt;Node9 -->
<g id="edge8_Node000004_Node000009" class="edge">
<title>Node4&#45;&gt;Node9</title>
<g id="a_edge8_Node000004_Node000009"><a xlink:title=" ">
<path fill="none" stroke="#63b8ff" d="M605.39,-109.98C594.99,-102 579.22,-89.88 566.76,-80.31"/>
<polygon fill="#63b8ff" stroke="#63b8ff" points="568.83,-77.49 558.77,-74.17 564.56,-83.04 568.83,-77.49"/>
</a>
</g>
</g>
<!-- Node10 -->
<g id="Node000010" class="node">
<title>Node10</title>
<g id="a_Node000010"><a xlink:title=" ">
<polygon fill="#e0e0e0" stroke="#999999" points="718.98,-74 677.98,-74 677.98,-55 718.98,-55 718.98,-74"/>
<text text-anchor="middle" x="698.48" y="-62" font-family="Helvetica,sans-Serif" font-size="10.00">QList</text>
</a>
</g>
</g>
<!-- Node4&#45;&gt;Node10 -->
<g id="edge10_Node000004_Node000010" class="edge">
<title>Node4&#45;&gt;Node10</title>
<g id="a_edge10_Node000004_Node000010"><a xlink:title=" ">
<path fill="none" stroke="#63b8ff" d="M629.65,-109.98C642.25,-101.84 661.48,-89.41 676.42,-79.76"/>
<polygon fill="#63b8ff" stroke="#63b8ff" points="678.56,-82.54 685.06,-74.17 674.77,-76.66 678.56,-82.54"/>
</a>
</g>
</g>
<!-- Node11 -->
<g id="Node000011" class="node">
<title>Node11</title>
<g id="a_Node000011"><a xlink:title=" ">
<polygon fill="#e0e0e0" stroke="#999999" points="791.98,-74 736.98,-74 736.98,-55 791.98,-55 791.98,-74"/>
<text text-anchor="middle" x="764.48" y="-62" font-family="Helvetica,sans-Serif" font-size="10.00">QPointF</text>
</a>
</g>
</g>
<!-- Node4&#45;&gt;Node11 -->
<g id="edge11_Node000004_Node000011" class="edge">
<title>Node4&#45;&gt;Node11</title>
<g id="a_edge11_Node000004_Node000011"><a xlink:title=" ">
<path fill="none" stroke="#63b8ff" d="M640.26,-109.98C664.71,-101.23 703.01,-87.51 730.62,-77.62"/>
<polygon fill="#63b8ff" stroke="#63b8ff" points="732.03,-80.84 740.27,-74.17 729.67,-74.25 732.03,-80.84"/>
</a>
</g>
</g>
<!-- Node6 -->
<g id="Node000006" class="node">
<title>Node6</title>
<g id="a_Node000006"><a xlink:title=" ">
<polygon fill="#e0e0e0" stroke="#999999" points="330.98,-19 257.98,-19 257.98,0 330.98,0 330.98,-19"/>
<text text-anchor="middle" x="294.48" y="-7" font-family="Helvetica,sans-Serif" font-size="10.00">QByteArray</text>
</a>
</g>
</g>
<!-- Node5&#45;&gt;Node6 -->
<g id="edge5_Node000005_Node000006" class="edge">
<title>Node5&#45;&gt;Node6</title>
<g id="a_edge5_Node000005_Node000006"><a xlink:title=" ">
<path fill="none" stroke="#63b8ff" d="M351.55,-54.98C341.4,-47.07 326.06,-35.11 313.83,-25.58"/>
<polygon fill="#63b8ff" stroke="#63b8ff" points="315.64,-22.56 305.6,-19.17 311.34,-28.08 315.64,-22.56"/>
</a>
</g>
</g>
<!-- Node5&#45;&gt;Node7 -->
<g id="edge6_Node000005_Node000007" class="edge">
<title>Node5&#45;&gt;Node7</title>
<g id="a_edge6_Node000005_Node000007"><a xlink:title=" ">
<path fill="none" stroke="#63b8ff" d="M386.74,-54.98C411.8,-46.19 451.11,-32.39 479.31,-22.49"/>
<polygon fill="#63b8ff" stroke="#63b8ff" points="480.5,-25.78 488.78,-19.17 478.18,-19.18 480.5,-25.78"/>
</a>
</g>
</g>
<!-- Node5&#45;&gt;Node8 -->
<g id="edge7_Node000005_Node000008" class="edge">
<title>Node5&#45;&gt;Node8</title>
<g id="a_edge7_Node000005_Node000008"><a xlink:title=" ">
<path fill="none" stroke="#63b8ff" d="M408.87,-59.43C524.78,-49.26 825.2,-22.9 929.87,-13.71"/>
<polygon fill="#63b8ff" stroke="#63b8ff" points="930.29,-17.19 939.94,-12.83 929.68,-10.22 930.29,-17.19"/>
</a>
</g>
</g>
<!-- Node12&#45;&gt;Node7 -->
<g id="edge16_Node000012_Node000007" class="edge">
<title>Node12&#45;&gt;Node7</title>
<g id="a_edge16_Node000012_Node000007"><a xlink:title=" ">
<path fill="none" stroke="#63b8ff" d="M797.38,-109.95C804.33,-96.55 814.81,-70.55 801.48,-55 771.23,-19.72 636.07,-12.16 562.16,-10.7"/>
<polygon fill="#63b8ff" stroke="#63b8ff" points="561.78,-7.19 551.72,-10.53 561.66,-14.19 561.78,-7.19"/>
</a>
</g>
</g>
<!-- Node12&#45;&gt;Node8 -->
<g id="edge20_Node000012_Node000008" class="edge">
<title>Node12&#45;&gt;Node8</title>
<g id="a_edge20_Node000012_Node000008"><a xlink:title=" ">
<path fill="none" stroke="#63b8ff" d="M827.32,-109.97C851.75,-102.91 884.39,-91.21 909.48,-74 927.92,-61.35 944.43,-41.54 954.87,-27.41"/>
<polygon fill="#63b8ff" stroke="#63b8ff" points="957.86,-29.26 960.82,-19.08 952.16,-25.19 957.86,-29.26"/>
</a>
</g>
</g>
<!-- Node12&#45;&gt;Node9 -->
<g id="edge15_Node000012_Node000009" class="edge">
<title>Node12&#45;&gt;Node9</title>
<g id="a_edge15_Node000012_Node000009"><a xlink:title=" ">
<path fill="none" stroke="#63b8ff" d="M753.11,-109.98C709.48,-100.54 639.19,-85.34 593.16,-75.38"/>
<polygon fill="#63b8ff" stroke="#63b8ff" points="593.67,-71.91 583.16,-73.22 592.19,-78.75 593.67,-71.91"/>
</a>
</g>
</g>
<!-- Node12&#45;&gt;Node10 -->
<g id="edge17_Node000012_Node000010" class="edge">
<title>Node12&#45;&gt;Node10</title>
<g id="a_edge17_Node000012_Node000010"><a xlink:title=" ">
<path fill="none" stroke="#63b8ff" d="M777.38,-109.98C762.66,-101.69 740.05,-88.94 722.8,-79.22"/>
<polygon fill="#63b8ff" stroke="#63b8ff" points="724.29,-76.03 713.86,-74.17 720.85,-82.13 724.29,-76.03"/>
</a>
</g>
</g>
<!-- Node12&#45;&gt;Node11 -->
<g id="edge18_Node000012_Node000011" class="edge">
<title>Node12&#45;&gt;Node11</title>
<g id="a_edge18_Node000012_Node000011"><a xlink:title=" ">
<path fill="none" stroke="#63b8ff" d="M787.85,-109.75C784.02,-102.49 778.45,-91.95 773.71,-82.98"/>
<polygon fill="#63b8ff" stroke="#63b8ff" points="776.78,-81.3 769.02,-74.09 770.59,-84.57 776.78,-81.3"/>
</a>
</g>
</g>
<!-- Node13 -->
<g id="Node000013" class="node">
<title>Node13</title>
<g id="a_Node000013"><a xlink:title=" ">
<polygon fill="#e0e0e0" stroke="#999999" points="900.48,-74 848.48,-74 848.48,-55 900.48,-55 900.48,-74"/>
<text text-anchor="middle" x="874.48" y="-62" font-family="Helvetica,sans-Serif" font-size="10.00">QRectF</text>
</a>
</g>
</g>
<!-- Node12&#45;&gt;Node13 -->
<g id="edge19_Node000012_Node000013" class="edge">
<title>Node12&#45;&gt;Node13</title>
<g id="a_edge19_Node000012_Node000013"><a xlink:title=" ">
<path fill="none" stroke="#63b8ff" d="M805.65,-109.98C818.25,-101.84 837.48,-89.41 852.42,-79.76"/>
<polygon fill="#63b8ff" stroke="#63b8ff" points="854.56,-82.54 861.06,-74.17 850.77,-76.66 854.56,-82.54"/>
</a>
</g>
</g>
<!-- Node17&#45;&gt;Node5 -->
<g id="edge32_Node000017_Node000005" class="edge">
<title>Node17&#45;&gt;Node5</title>
<g id="a_edge32_Node000017_Node000005"><a xlink:title=" ">
<path fill="none" stroke="#63b8ff" d="M137.54,-109.98C184.19,-100.76 258.68,-86.03 309.03,-76.07"/>
<polygon fill="#63b8ff" stroke="#63b8ff" points="309.95,-79.46 319.08,-74.08 308.59,-72.59 309.95,-79.46"/>
</a>
</g>
</g>
<!-- Node17&#45;&gt;Node6 -->
<g id="edge33_Node000017_Node000006" class="edge">
<title>Node17&#45;&gt;Node6</title>
<g id="a_edge33_Node000017_Node000006"><a xlink:title=" ">
<path fill="none" stroke="#63b8ff" d="M103.34,-109.58C117.08,-96.17 144.84,-70.69 172.48,-55 197.72,-40.66 228.43,-29.49 252.73,-21.93"/>
<polygon fill="#63b8ff" stroke="#63b8ff" points="253.82,-25.25 262.37,-19.01 251.79,-18.55 253.82,-25.25"/>
</a>
</g>
</g>
<!-- Node17&#45;&gt;Node8 -->
<g id="edge35_Node000017_Node000008" class="edge">
<title>Node17&#45;&gt;Node8</title>
<g id="a_edge35_Node000017_Node000008"><a xlink:title=" ">
<path fill="none" stroke="#63b8ff" d="M117.08,-109.94C155.54,-95.79 236.47,-67.82 307.48,-55 541.57,-12.75 828.99,-9.75 929.61,-10.14"/>
<polygon fill="#63b8ff" stroke="#63b8ff" points="929.83,-13.64 939.85,-10.19 929.87,-6.64 929.83,-13.64"/>
</a>
</g>
</g>
<!-- Node17&#45;&gt;Node15 -->
<g id="edge34_Node000017_Node000015" class="edge">
<title>Node17&#45;&gt;Node15</title>
<g id="a_edge34_Node000017_Node000015"><a xlink:title=" ">
<path fill="none" stroke="#63b8ff" d="M84.03,-109.98C74.33,-102.07 59.66,-90.11 47.98,-80.58"/>
<polygon fill="#63b8ff" stroke="#63b8ff" points="50.07,-77.78 40.11,-74.17 45.65,-83.2 50.07,-77.78"/>
</a>
</g>
</g>
<!-- Node18&#45;&gt;Node4 -->
<g id="edge40_Node000018_Node000004" class="edge">
<title>Node18&#45;&gt;Node4</title>
<g id="a_edge40_Node000018_Node000004"><a xlink:title=" ">
<path fill="none" stroke="#63b8ff" d="M671.01,-219.91C651.95,-213.4 630.21,-202.33 618.48,-184 610.02,-170.79 610.34,-152.67 612.3,-139.16"/>
<polygon fill="#63b8ff" stroke="#63b8ff" points="615.78,-139.58 614.17,-129.11 608.9,-138.3 615.78,-139.58"/>
</a>
</g>
</g>
<!-- Node18&#45;&gt;Node5 -->
<g id="edge41_Node000018_Node000005" class="edge">
<title>Node18&#45;&gt;Node5</title>
<g id="a_edge41_Node000018_Node000005"><a xlink:title=" ">
<path fill="none" stroke="#63b8ff" d="M625.11,-225.73C532.62,-221.36 389.3,-210.46 342.48,-184 309.36,-165.29 281.98,-143.78 299.48,-110 306.52,-96.41 319.82,-86.09 332.4,-78.82"/>
<polygon fill="#63b8ff" stroke="#63b8ff" points="334.15,-81.86 341.33,-74.07 330.86,-75.68 334.15,-81.86"/>
</a>
</g>
</g>
<!-- Node18&#45;&gt;Node7 -->
<g id="edge42_Node000018_Node000007" class="edge">
<title>Node18&#45;&gt;Node7</title>
<g id="a_edge42_Node000018_Node000007"><a xlink:title=" ">
<path fill="none" stroke="#63b8ff" d="M625.09,-229.21C523.3,-228.42 357.76,-221.21 310.48,-184 265.41,-148.53 265.2,-93.75 307.48,-55 330.16,-34.21 411.93,-21.53 465.37,-15.28"/>
<polygon fill="#63b8ff" stroke="#63b8ff" points="465.79,-18.76 475.33,-14.15 465,-11.8 465.79,-18.76"/>
</a>
</g>
</g>
<!-- Node18&#45;&gt;Node8 -->
<g id="edge43_Node000018_Node000008" class="edge">
<title>Node18&#45;&gt;Node8</title>
<g id="a_edge43_Node000018_Node000008"><a xlink:title=" ">
<path fill="none" stroke="#63b8ff" d="M725.78,-219.91C743.94,-211.26 772.45,-197.32 796.48,-184 871,-142.7 909.48,-146.96 953.48,-74 961.57,-60.58 964.7,-42.98 965.88,-29.71"/>
<polygon fill="#63b8ff" stroke="#63b8ff" points="969.4,-29.57 966.49,-19.38 962.41,-29.16 969.4,-29.57"/>
</a>
</g>
</g>
<!-- Node19 -->
<g id="Node000019" class="node">
<title>Node19</title>
<g id="a_Node000019"><a xlink:href="FootprintGraphicsGenerator_8h.html" target="_top" xlink:title=" ">
<polygon fill="white" stroke="#666666" points="787.48,-184 627.48,-184 627.48,-165 787.48,-165 787.48,-184"/>
<text text-anchor="middle" x="707.48" y="-172" font-family="Helvetica,sans-Serif" font-size="10.00">FootprintGraphicsGenerator.h</text>
</a>
</g>
</g>
<!-- Node18&#45;&gt;Node19 -->
<g id="edge37_Node000018_Node000019" class="edge">
<title>Node18&#45;&gt;Node19</title>
<g id="a_edge37_Node000018_Node000019"><a xlink:title=" ">
<path fill="none" stroke="#63b8ff" d="M707.48,-219.75C707.48,-212.8 707.48,-202.85 707.48,-194.13"/>
<polygon fill="#63b8ff" stroke="#63b8ff" points="710.98,-194.09 707.48,-184.09 703.98,-194.09 710.98,-194.09"/>
</a>
</g>
</g>
<!-- Node20 -->
<g id="Node000020" class="node">
<title>Node20</title>
<g id="a_Node000020"><a xlink:title=" ">
<polygon fill="#e0e0e0" stroke="#999999" points="923.48,-184 843.48,-184 843.48,-165 923.48,-165 923.48,-184"/>
<text text-anchor="middle" x="883.48" y="-172" font-family="Helvetica,sans-Serif" font-size="10.00">QTextStream</text>
</a>
</g>
</g>
<!-- Node18&#45;&gt;Node20 -->
<g id="edge44_Node000018_Node000020" class="edge">
<title>Node18&#45;&gt;Node20</title>
<g id="a_edge44_Node000018_Node000020"><a xlink:title=" ">
<path fill="none" stroke="#63b8ff" d="M735.76,-219.98C765.43,-211.05 812.27,-196.94 845.23,-187.02"/>
<polygon fill="#63b8ff" stroke="#63b8ff" points="846.41,-190.32 854.98,-184.08 844.39,-183.61 846.41,-190.32"/>
</a>
</g>
</g>
<!-- Node19&#45;&gt;Node4 -->
<g id="edge38_Node000019_Node000004" class="edge">
<title>Node19&#45;&gt;Node4</title>
<g id="a_edge38_Node000019_Node000004"><a xlink:title=" ">
<path fill="none" stroke="#63b8ff" d="M692.86,-164.98C678.61,-156.69 656.73,-143.94 640.03,-134.22"/>
<polygon fill="#63b8ff" stroke="#63b8ff" points="641.77,-131.18 631.36,-129.17 638.24,-137.23 641.77,-131.18"/>
</a>
</g>
</g>
<!-- Node19&#45;&gt;Node8 -->
<g id="edge39_Node000019_Node000008" class="edge">
<title>Node19&#45;&gt;Node8</title>
<g id="a_edge39_Node000019_Node000008"><a xlink:title=" ">
<path fill="none" stroke="#63b8ff" d="M752.32,-164.92C802.95,-152.98 884.62,-126.63 933.48,-74 945.62,-60.92 954.52,-42.54 960,-28.91"/>
<polygon fill="#63b8ff" stroke="#63b8ff" points="963.41,-29.79 963.66,-19.2 956.86,-27.32 963.41,-29.79"/>
</a>
</g>
</g>
<!-- Node21&#45;&gt;Node7 -->
<g id="edge50_Node000021_Node000007" class="edge">
<title>Node21&#45;&gt;Node7</title>
<g id="a_edge50_Node000021_Node000007"><a xlink:title=" ">
<path fill="none" stroke="#63b8ff" d="M926.69,-219.8C934.02,-211.38 944.23,-197.9 948.48,-184 963.02,-136.43 943.96,-82.38 909.48,-55 856.73,-13.12 655.16,-9.21 561.65,-9.73"/>
<polygon fill="#63b8ff" stroke="#63b8ff" points="561.57,-6.23 551.6,-9.81 561.63,-13.23 561.57,-6.23"/>
</a>
</g>
</g>
<!-- Node21&#45;&gt;Node8 -->
<g id="edge51_Node000021_Node000008" class="edge">
<title>Node21&#45;&gt;Node8</title>
<g id="a_edge51_Node000021_Node000008"><a xlink:title=" ">
<path fill="none" stroke="#63b8ff" d="M997.04,-220.29C1069.82,-211.87 1168.61,-198.06 1180.48,-184 1241.91,-111.26 1078.41,-46.74 1002.64,-21.63"/>
<polygon fill="#63b8ff" stroke="#63b8ff" points="1003.59,-18.26 993,-18.49 1001.42,-24.92 1003.59,-18.26"/>
</a>
</g>
</g>
<!-- Node21&#45;&gt;Node12 -->
<g id="edge49_Node000021_Node000012" class="edge">
<title>Node21&#45;&gt;Node12</title>
<g id="a_edge49_Node000021_Node000012"><a xlink:title=" ">
<path fill="none" stroke="#63b8ff" d="M924.35,-219.81C932.41,-206.68 944.61,-181.58 932.48,-165 912.73,-138 876.46,-126.98 845.79,-122.66"/>
<polygon fill="#63b8ff" stroke="#63b8ff" points="845.98,-119.16 835.63,-121.44 845.14,-126.11 845.98,-119.16"/>
</a>
</g>
</g>
<!-- Node21&#45;&gt;Node20 -->
<g id="edge52_Node000021_Node000020" class="edge">
<title>Node21&#45;&gt;Node20</title>
<g id="a_edge52_Node000021_Node000020"><a xlink:title=" ">
<path fill="none" stroke="#63b8ff" d="M912.7,-219.75C907.86,-212.42 900.8,-201.73 894.83,-192.7"/>
<polygon fill="#63b8ff" stroke="#63b8ff" points="897.58,-190.5 889.15,-184.09 891.74,-194.36 897.58,-190.5"/>
</a>
</g>
</g>
<!-- Node22 -->
<g id="Node000022" class="node">
<title>Node22</title>
<g id="a_Node000022"><a xlink:href="SymbolGraphicsGenerator_8h.html" target="_top" xlink:title=" ">
<polygon fill="white" stroke="#666666" points="1170.98,-184 1017.98,-184 1017.98,-165 1170.98,-165 1170.98,-184"/>
<text text-anchor="middle" x="1094.48" y="-172" font-family="Helvetica,sans-Serif" font-size="10.00">SymbolGraphicsGenerator.h</text>
</a>
</g>
</g>
<!-- Node21&#45;&gt;Node22 -->
<g id="edge46_Node000021_Node000022" class="edge">
<title>Node21&#45;&gt;Node22</title>
<g id="a_edge46_Node000021_Node000022"><a xlink:title=" ">
<path fill="none" stroke="#63b8ff" d="M946.76,-219.98C976.43,-211.05 1023.27,-196.94 1056.23,-187.02"/>
<polygon fill="#63b8ff" stroke="#63b8ff" points="1057.41,-190.32 1065.98,-184.08 1055.39,-183.61 1057.41,-190.32"/>
</a>
</g>
</g>
<!-- Node22&#45;&gt;Node8 -->
<g id="edge48_Node000022_Node000008" class="edge">
<title>Node22&#45;&gt;Node8</title>
<g id="a_edge48_Node000022_Node000008"><a xlink:title=" ">
<path fill="none" stroke="#63b8ff" d="M1093.97,-164.95C1092.29,-143.82 1085.24,-88.4 1056.48,-55 1042.5,-38.77 1021.2,-27.86 1002.82,-20.91"/>
<polygon fill="#63b8ff" stroke="#63b8ff" points="1003.86,-17.57 993.26,-17.54 1001.53,-24.17 1003.86,-17.57"/>
</a>
</g>
</g>
<!-- Node22&#45;&gt;Node12 -->
<g id="edge47_Node000022_Node000012" class="edge">
<title>Node22&#45;&gt;Node12</title>
<g id="a_edge47_Node000022_Node000012"><a xlink:title=" ">
<path fill="none" stroke="#63b8ff" d="M1045.96,-164.98C991.18,-155.37 902.32,-139.78 845.68,-129.84"/>
<polygon fill="#63b8ff" stroke="#63b8ff" points="845.95,-126.33 835.5,-128.05 844.74,-133.23 845.95,-126.33"/>
</a>
</g>
</g>
</g>
</svg>
